<?xml version="1.0" encoding="UTF-8" standalone="no"?>
<svg
   xmlns:dc="http://purl.org/dc/elements/1.1/"
   xmlns:cc="http://creativecommons.org/ns#"
   xmlns:rdf="http://www.w3.org/1999/02/22-rdf-syntax-ns#"
   xmlns:svg="http://www.w3.org/2000/svg"
   xmlns="http://www.w3.org/2000/svg"
   xmlns:xlink="http://www.w3.org/1999/xlink"
   xmlns:sodipodi="http://sodipodi.sourceforge.net/DTD/sodipodi-0.dtd"
   xmlns:inkscape="http://www.inkscape.org/namespaces/inkscape"
   width="64"
   height="64"
   fill="none"
   version="1.1"
   id="svg34"
   sodipodi:docname="ticket.svg"
   inkscape:version="1.0.1 (3bc2e813f5, 2020-09-07)">
  <metadata
     id="metadata38">
    <rdf:RDF>
      <cc:Work
         rdf:about="">
        <dc:format>image/svg+xml</dc:format>
        <dc:type
           rdf:resource="http://purl.org/dc/dcmitype/StillImage" />
        <dc:title></dc:title>
      </cc:Work>
    </rdf:RDF>
  </metadata>
  <sodipodi:namedview
     pagecolor="#ffffff"
     bordercolor="#666666"
     borderopacity="1"
     objecttolerance="10"
     gridtolerance="10"
     guidetolerance="10"
     inkscape:pageopacity="0"
     inkscape:pageshadow="2"
     inkscape:window-width="1680"
     inkscape:window-height="987"
     id="namedview36"
     showgrid="false"
     inkscape:zoom="4.0603397"
     inkscape:cx="2.8067873"
     inkscape:cy="43.29252"
     inkscape:window-x="-8"
     inkscape:window-y="-8"
     inkscape:window-maximized="1"
     inkscape:current-layer="g22" />
  <path
     d="M61.03 22.922a1.87 1.87 0 0 1 .21 2.397 145.99 145.99 0 0 1-34.837 35.147l-1.068.762a1.97 1.97 0 0 1-2.536-.211l-4.81-4.81a7.51 7.51 0 0 0-10.62-10.619l-4.424-4.424c-.84-.84-.725-2.237.243-2.927l1.07-.762A142.46 142.46 0 0 0 38.252 3.177a1.83 1.83 0 0 1 2.788-.244l4.502 4.502a7.51 7.51 0 0 0 10.619 10.619l4.868 4.868z"
     fill="#dbcdf9"
     id="path2"
     style="fill:#ffff00" />
  <path
     d="M63.16 24.252l-17.193 21.77L23.73 62.856l-4.277-4.308-1.543-1.87 1.543-2.233.54-2.233-.298-2.38-.893-2.233-1.488-1.786-1.786-1.19-1.935-.595h-2.38l-2.53.893-1.488 1.34-3.572-4.316 5.81-.867a106.28 106.28 0 0 0 49.452-21.132l4.277 4.308z"
     fill="#a28bd4"
     id="path4"
     style="fill:#d4aa00" />
  <g
     fill-rule="evenodd"
     fill="#633001"
     id="g22">
    <path
       d="m 15.818,56.416 a 2.38,2.38 0 0 1 0.701,-1.685 l 0.008,-0.008 A 5.13,5.13 0 0 0 9.274,47.47 L 9.266,47.478 A 2.38,2.38 0 0 1 5.895,47.482 L 1.26,42.848 a 4.31,4.31 0 0 1 0.545,-6.55 l 1.07,-0.762 1.383,1.94 -1.07,0.762 c -0.97,0.69 -1.085,2.086 -0.243,2.927 l 4.633,4.633 0.01,-0.01 c 2.945,-2.933 7.692,-2.93 10.62,0 a 7.51,7.51 0 0 1 0.012,10.609 l -0.023,0.023 4.598,4.598 a 1.97,1.97 0 0 0 2.536,0.211 l 1.068,-0.762 A 145.99,145.99 0 0 0 61.236,25.32 1.87,1.87 0 0 0 61.026,22.923 l -4.83,-4.83 -0.106,0.106 A 7.51,7.51 0 0 1 45.47,7.578 L 45.576,7.472 41.038,2.932 A 1.83,1.83 0 0 0 38.25,3.176 142.46,142.46 0 0 1 4.257,37.474 L 2.874,35.534 A 140.08,140.08 0 0 0 36.301,1.812 4.21,4.21 0 0 1 42.724,1.249 l 4.54,4.54 A 2.38,2.38 0 0 1 47.247,9.173 L 47.21,9.21 a 5.13,5.13 0 0 0 7.253,7.253 L 54.5,16.426 a 2.38,2.38 0 0 1 3.384,-0.017 l 4.83,4.83 c 1.46,1.46 1.66,3.756 0.477,5.446 a 148.37,148.37 0 0 1 -35.405,35.72 l -1.068,0.762 A 4.35,4.35 0 0 1 21.115,62.701 L 16.517,58.103 A 2.38,2.38 0 0 1 15.82,56.417 Z"
       id="path6"
       style="fill:#2b2200" />
    <use
       xlink:href="#A"
       id="use8"
       x="0"
       y="0"
       width="100%"
       height="100%"
       style="fill:#2b2200" />
    <use
       xlink:href="#A"
       x="4.4200001"
       y="4.421"
       id="use10"
       width="100%"
       height="100%"
       style="fill:#2b2200" />
    <use
       xlink:href="#B"
       id="use12"
       x="0"
       y="0"
       width="100%"
       height="100%"
       style="fill:#2b2200" />
    <use
       xlink:href="#B"
       x="4.4200001"
       y="4.4200001"
       id="use14"
       width="100%"
       height="100%"
       style="fill:#2b2200" />
    <path
       d="m 49.46,28.724 1.052,1.052 a 1.1907678,1.1907678 0 1 1 -1.684,1.684 l -1.052,-1.053 a 1.1907678,1.1907678 0 1 1 1.684,-1.684 z"
       id="path16"
       style="fill:#2b2200" />
    <use
       xlink:href="#A"
       x="21.889999"
       y="21.891001"
       id="use18"
       width="100%"
       height="100%"
       style="fill:#2b2200" />
    <path
       style="display:inline;fill:#000000;stroke-width:0.0136995"
       d="m 42.378421,44.4077 c -0.120105,-0.27022 -0.176899,-0.326529 -0.318414,-0.31551 -0.09472,0.0074 -0.224523,-0.05041 -0.288451,-0.128419 -0.07989,-0.09751 -0.182816,-0.125084 -0.329326,-0.08828 -0.1968,0.04943 -0.226789,0.02739 -0.391922,-0.288116 -0.209431,-0.400192 -0.263401,-0.397142 -0.77584,0.04371 -0.186563,0.160499 -0.365104,0.28237 -0.39677,0.270822 -0.03163,-0.01153 -0.142693,-0.143012 -0.246753,-0.292135 l -0.189193,-0.271144 -0.366409,0.157776 c -0.304517,0.131115 -0.398433,0.141019 -0.555809,0.05902 l -0.189376,-0.09874 -0.201241,0.234763 c -0.259013,0.302155 -0.376824,0.341405 -0.460396,0.153379 -0.201124,-0.452499 0.632253,-2.540313 1.603679,-4.017609 l 0.39916,-0.607018 -0.145252,-0.485113 C 39.437238,38.43824 39.301637,38.152712 39.176796,37.999347 39.064557,37.861503 38.90292,37.591637 38.817587,37.39965 38.732257,37.207664 38.503868,36.849681 38.310098,36.604118 38.02499,36.242881 37.8928,36.13828 37.617459,36.056144 c -0.40818,-0.121766 -0.612494,-0.06404 -0.631792,0.178495 -0.0079,0.09868 -0.124198,0.445794 -0.258541,0.771378 -0.134345,0.325583 -0.316001,1.023806 -0.403682,1.551609 -0.149271,0.898601 -0.523062,2.011554 -1.038041,3.090755 -0.392936,0.823458 -1.216493,1.510435 -2.268269,1.892095 -0.870061,0.315723 -1.368605,0.387834 -2.367851,0.34252 -1.05955,-0.04801 -1.708265,-0.26758 -2.377488,-0.804639 -0.450818,-0.361786 -0.499705,-0.428157 -0.7802,-1.05923 -0.185474,-0.417289 -0.312959,-0.823737 -0.335299,-1.069047 -0.01983,-0.217688 -0.06018,-0.40458 -0.08965,-0.415323 -0.02947,-0.01074 -0.111261,0.05721 -0.181772,0.151032 -0.16367,0.217787 -0.571802,0.3671 -0.787952,0.288302 -0.222405,-0.08109 -0.453669,-0.610411 -0.586115,-1.34158 -0.06739,-0.37194 -0.246294,-0.896813 -0.513383,-1.506221 -0.346297,-0.789961 -0.448335,-0.963533 -0.656862,-1.116769 -0.398789,-0.293015 -0.779883,-0.413919 -1.024699,-0.325082 -0.386611,0.140291 -0.504502,0.604505 -0.379905,1.495934 0.02358,0.168698 -0.04204,0.508224 -0.151498,0.783895 -0.1062,0.267464 -0.220701,0.732799 -0.25445,1.03408 l -0.06135,0.547785 -0.427652,0.178433 -0.427645,0.178445 0.01791,0.330847 c 0.02564,0.473517 -0.297415,1.125703 -0.61462,1.240809 -0.665017,0.241317 -1.460287,-0.351008 -1.17625,-0.876083 0.115893,-0.214242 0.501142,-0.414799 0.556698,-0.289804 0.01697,0.03817 -0.0038,0.180791 -0.04616,0.316961 -0.133389,0.428878 0.139504,0.581269 0.558463,0.31186 0.22464,-0.14444 0.308337,-0.586895 0.170062,-0.898926 -0.0857,-0.193302 -0.141542,-0.23941 -0.245917,-0.202849 -0.07429,0.026 -0.302109,0.04283 -0.506269,0.03738 -0.275523,-0.0074 -0.40314,-0.05413 -0.495135,-0.181479 -0.146921,-0.20338 -0.241652,-0.836912 -0.190266,-1.272406 l 0.03659,-0.310511 -0.489825,-0.424063 c -0.269405,-0.233233 -0.576841,-0.560089 -0.68319,-0.726347 -0.106347,-0.166258 -0.257843,-0.319752 -0.336653,-0.341103 -0.09457,-0.02561 -0.205429,-0.177605 -0.326034,-0.446996 -0.221609,-0.495237 -0.413312,-0.651281 -0.836811,-0.681614 -0.177347,-0.01271 -0.380144,-0.04003 -0.450661,-0.06072 -0.200672,-0.05889 -0.290705,-0.369487 -0.21342,-0.736243 0.08934,-0.423981 -0.124792,-0.940354 -0.604595,-1.457938 -0.42291,-0.456217 -0.452665,-0.520205 -0.272353,-0.585636 0.08177,-0.02968 0.425325,0.06989 0.793317,0.22992 0.400706,0.174248 0.640684,0.241504 0.627138,0.175759 -0.01206,-0.05857 -0.416311,-0.449795 -0.898313,-0.869381 -0.983099,-0.855802 -1.149179,-1.089786 -0.850452,-1.198187 0.151234,-0.05488 0.365114,0.02271 1.040448,0.37745 0.472093,0.247977 0.90621,0.426159 0.976308,0.400723 0.06942,-0.02519 0.274481,-0.328358 0.455682,-0.6737 0.318303,-0.606647 0.330052,-0.666898 0.347192,-1.780413 0.01901,-1.235517 0.133176,-1.821861 0.362989,-1.864354 0.23601,-0.04364 0.407614,0.394933 0.484059,1.237129 0.06975,0.76844 0.158245,1.107939 0.292724,1.123009 0.03872,0.0043 0.673308,-0.147331 1.410195,-0.337043 l 1.339794,-0.344928 0.147712,-0.279963 c 0.209967,-0.397949 0.341809,-1.030855 0.255292,-1.22551 -0.04049,-0.09111 -0.189815,-0.284703 -0.331822,-0.430207 -0.47201,-0.483647 -0.37612,-0.805258 0.202671,-0.679634 0.254323,0.0552 0.53796,0.02287 0.50234,-0.05728 -0.04023,-0.09051 -0.20978,-2.164124 -0.21379,-2.614657 -0.0026,-0.290242 0.04146,-0.537736 0.09943,-0.558773 0.344416,-0.124979 0.770362,0.576663 0.98857,1.628435 0.17491,0.843069 0.245276,0.917997 0.380801,0.405491 0.111454,-0.421484 0.244702,-0.683734 0.370623,-0.729427 0.174735,-0.06341 0.335265,0.389482 0.364771,1.029173 0.01422,0.307887 0.07666,0.674146 0.138772,0.813902 0.09754,0.219455 0.162336,0.262637 0.47526,0.316732 0.199271,0.03445 0.674094,0.193682 1.055148,0.353853 0.381062,0.16017 0.737258,0.275098 0.79155,0.255397 0.05429,-0.0197 0.168789,-0.168211 0.254445,-0.330026 0.208192,-0.39332 0.386632,-0.351156 0.606398,0.143284 0.13214,0.297297 0.18231,0.350136 0.2935,0.30917 0.07379,-0.02716 0.366393,-0.429879 0.650279,-0.894893 0.428032,-0.701128 0.556806,-0.856803 0.754261,-0.911804 0.381661,-0.106308 0.476789,0.15814 0.264507,0.735325 -0.585098,1.590958 -0.591473,1.707026 -0.08976,1.63459 0.168251,-0.02429 0.366912,-0.0058 0.441482,0.04108 0.240505,0.151226 0.156559,0.308142 -0.723002,1.351496 -0.33155,0.393289 -0.311656,0.57029 0.12606,1.121532 0.265832,0.334805 0.486428,0.759233 1.024754,1.971762 0.652653,1.470329 0.687574,1.573532 0.721274,2.13067 0.03111,0.516481 0.32871,1.755907 0.430514,1.793026 0.10293,0.03753 0.537479,-1.219704 0.68316,-1.976484 0.191929,-0.997045 0.346924,-1.276197 1.134979,-2.044131 0.369599,-0.360162 0.579836,-0.625025 0.579245,-0.729748 -5.08e-4,-0.09041 -0.109849,-0.553115 -0.242991,-1.028223 -0.2493,-0.889622 -0.284553,-1.50389 -0.0952,-1.658592 0.149625,-0.122237 0.268389,-0.02596 0.547848,0.444175 0.144942,0.243864 0.275982,0.390975 0.329601,0.37012 0.04894,-0.01911 0.209273,-0.396162 0.356267,-0.83805 0.507342,-1.525168 0.831667,-2.089843 1.205887,-2.099534 0.188676,-0.0048 0.233528,0.144905 0.180801,0.603844 -0.06467,0.562913 -0.01884,0.626322 0.354719,0.490769 0.217408,-0.07889 0.338806,-0.08473 0.407575,-0.0196 0.104282,0.09875 0.103017,0.107594 -0.162423,1.129306 -0.20448,0.7871 -0.183644,0.889402 0.150895,0.740848 0.219805,-0.0976 0.252476,-0.08964 0.354392,0.08568 0.09084,0.156254 0.06714,0.304384 -0.123881,0.774827 -0.326705,0.804588 -0.286987,0.869904 0.923141,1.518131 0.291002,0.155879 0.615488,0.373732 0.721082,0.484118 0.10559,0.11039 0.232198,0.185368 0.281404,0.166603 0.04916,-0.01879 0.268642,-0.255207 0.487701,-0.525437 0.295697,-0.364778 0.474173,-0.51887 0.692935,-0.598253 0.260053,-0.09437 0.303027,-0.08808 0.365988,0.05357 0.0493,0.110916 -0.009,0.289763 -0.188625,0.578991 -0.142983,0.230174 -0.250009,0.440896 -0.237842,0.46827 0.01216,0.02737 0.12371,0.0526 0.247883,0.05603 0.155558,0.0043 0.249464,0.05956 0.301926,0.17759 0.04315,0.09708 0.0227,0.268451 -0.04721,0.395492 -0.09701,0.176317 -0.09433,0.28944 0.01257,0.52995 l 0.13591,0.305777 -0.422349,0.203652 -0.422369,0.203627 0.430397,0.978188 c 0.315183,0.716014 0.445834,1.107469 0.487954,1.460637 0.03732,0.31286 0.260908,1.03472 0.636107,2.053533 0.565905,1.536638 0.901234,2.807498 0.940273,3.563355 0.01897,0.367223 -0.115422,0.89963 -0.238343,0.944234 -0.0401,0.01455 -0.138683,-0.121555 -0.21909,-0.302459 z"
       id="path1581"
       inkscape:label="Gya" />
  </g>
  <g
     fill="#dbcdf9"
     id="g28" />
  <defs
     id="defs32">
    <path
       id="A"
       d="M31.99 11.253l1.052 1.052a1.19 1.19 0 1 1-1.684 1.684l-1.052-1.052a1.19 1.19 0 1 1 1.684-1.684z" />
    <path
       id="B"
       d="M41.884 22.83a1.19 1.19 0 0 1-1.684 0l-1.263-1.263a1.19 1.19 0 1 1 1.684-1.684l1.263 1.263a1.19 1.19 0 0 1 0 1.684z" />
  </defs>
</svg>
